<svg id="logo-lachaudiere" xmlns="http://www.w3.org/2000/svg" width="135" height="62.419" viewBox="0 0 135 62.419">
  <path id="Path" d="M133.342,20.461c-2.5-6.363-6.753-7.486-12.881-6.737a65.535,65.535,0,0,1-9.879.5c0-.5.125-1,.125-1.5-.125-4.117-1.251-7.111-3.877-9.357a3.732,3.732,0,0,0-2-.873L92.324,0a.892.892,0,0,0-.75.374L85.07,10.73C57.808,4.242,34.8-7.486,23.418,11.1a60.32,60.32,0,0,0-8,.873C-2.844,15.6-.968,36.181,1.658,42.918c2.5,6.363,6.753,7.486,12.881,6.737C56.182,44.54,95.575,78.6,111.582,52.4a60.32,60.32,0,0,0,8-.873c18.258-3.743,16.382-24.329,13.756-31.066" fill="#e21f26"/>
  <path id="Path-2" data-name="Path" d="M0,16.227,10.182,0,22.5,2.372,12.444,19.6Z" transform="translate(82.742 1.452)" fill="#fff"/>
  <path id="Path-3" data-name="Path" d="M12.939,9.645,0,16.694,9.8,0c1.382.989,3.266,3.833,3.266,8.038a6.433,6.433,0,0,1-.126,1.608" transform="translate(96.532 4.355)" fill="#fff"/>
  <path id="Path-4" data-name="Path" d="M0,0H2.9V.751H.924V1.5H2.639v.751H.924V3.629H0Z" transform="translate(30.484 11.613)" fill="#fff"/>
  <path id="Shape" d="M2.056,3.629,1.33,2.5h-.6V3.629H0V0H1.572c.484,0,.847.125.968.375a1.083,1.083,0,0,1,.241.876,1.133,1.133,0,0,1-.725,1.127L2.9,3.629Z" transform="translate(34.839 11.613)" fill="#fff"/>
  <path id="Shape-2" data-name="Shape" d="M0,1.814A1.781,1.781,0,0,1,1.814,0,1.781,1.781,0,0,1,3.629,1.814,1.781,1.781,0,0,1,1.814,3.629,1.95,1.95,0,0,1,0,1.814Z" transform="translate(39.194 11.613)" fill="#fff"/>
  <path id="Path-5" data-name="Path" d="M0,0H.876l.876,1.5,1-1.5h.876V3.629H2.878V1.251l-1.126,1.5h0l-1-1.5V3.629H0Z" transform="translate(45 11.613)" fill="#fff"/>
  <path id="Shape-3" data-name="Shape" d="M2.81,3.629l-.351-.751h-1.4L.7,3.629H0L1.522,0h.7l1.4,3.629Z" transform="translate(50.081 11.613)" fill="#fff"/>
  <path id="Path-6" data-name="Path" d="M0,1.756H0A1.821,1.821,0,0,1,1.944,0,1.881,1.881,0,0,1,3.37.468l-.518.585A1.351,1.351,0,0,0,1.815.7,1,1,0,0,0,.778,1.756h0A1.11,1.11,0,0,0,1.944,2.81a1.98,1.98,0,0,0,.778-.234V2.107H1.944V1.522H3.629V3.044a2.265,2.265,0,0,1-1.555.585C.778,3.395,0,2.693,0,1.756" transform="translate(54.435 11.613)" fill="#fff"/>
  <path id="Path-7" data-name="Path" d="M0,0H2.771V.751H.792V1.5H2.639v.626H.792v.751H2.9v.751H0Z" transform="translate(59.516 11.613)" fill="#fff"/>
  <path id="Shape-4" data-name="Shape" d="M2.056,3.629,1.33,2.5h-.6V3.629H0V0H1.572c.484,0,.847.125.968.375a1.083,1.083,0,0,1,.241.876,1.133,1.133,0,0,1-.725,1.127L2.9,3.629Z" transform="translate(64.597 11.613)" fill="#fff"/>
  <rect id="Rectangle" width="0.726" height="3.629" transform="translate(68.952 11.613)" fill="#fff"/>
  <path id="Path-8" data-name="Path" d="M0,0H2.9V.751H.792V1.5H2.639v.626H.792v.751H2.9v.751H0Z" transform="translate(71.129 11.613)" fill="#fff"/>
  <path id="Shape-5" data-name="Shape" d="M0,16.5v-.75a4.3,4.3,0,0,1,3.268-3.372A7.027,7.027,0,0,1,6.662,13c.252,0,.629-1.124,1.131-3.122,0,0,.88-2.873.88-3.123,0-.374-2.389-.124-2.389-2.123,0-.374.252-1.249.754-1.374.252,0,.377,1.874,1.885,1.624.377,0,1.383-4.5,4.148-4.872,1.257-.125,1.885.75,1.885,2,0,2.748-4.148,4.5-4.148,4.5-.251,1.249-.754,3.372-1.005,4.246-1.131,3.5-1.257,3.123-1.257,3.5A4.186,4.186,0,0,0,11.564,15.5a1.534,1.534,0,0,0,1.257-.625V14c0-4,3.645-7.12,5.153-7.245h.754a12.252,12.252,0,0,0,1.382.375c.252,0,.252-.75.754-.75h.5a1.1,1.1,0,0,1,1.131.5c0,1.249-2.263,4.622-2.263,6.87,0,.374.251.75,1.005.874V15c-.125.125-.125.874-.628.874-.88,0-2.137-.249-2.137-1.5V13.252c-.126.125-1.634,2.748-3.143,3.122A2.96,2.96,0,0,1,13.324,16a4.536,4.536,0,0,1-1.76.625H10.182C8.924,16.374,8.3,15.375,7.668,15.5a10.652,10.652,0,0,1-3.52,2.373c-.5.124-.754.124-1.257.249a2.548,2.548,0,0,1-.354.023C1.564,18.145,0,17.711,0,16.5Z" transform="translate(8.71 21.774)" fill="#fff"/>
  <path id="Path-9" data-name="Path" d="M10.354,20.21C8.732,21.832,6.861,23.079,5.115,23.2c-1.247,0-1.871-1.248-1.871-2.62V18.963A28.451,28.451,0,0,1,5.614,10.6c3.618-6.986,6.113-8.483,7.111-8.483.873,0,1.123,1.123,1.123,1.248a7.357,7.357,0,0,1-1.372,3.493c-1.5,2-2.869,1.248-2.869,2.121,0,.25.374,1.622,1.247,1.622,1,0,5.115-2.246,5.115-6.861C15.968,1.123,14.221,0,13.473,0h-.748C8.233.624,4.865,5.115,2.994,9.107.374,14.721,0,16.967,0,20.085c0,5.489,3.618,5.988,3.618,5.988a8.239,8.239,0,0,0,1.871,0c3.119-.5,5.988-3.618,5.988-3.618,1.746-2.62.5-3.743-1.123-2.246" transform="translate(33.387 18.871)" fill="#fff"/>
  <path id="Path-10" data-name="Path" d="M1.31,2.432c.572.485.686,1.7,1.258.97C3.255,2.553,2.8,1.1,2,.369a1.316,1.316,0,0,0-1.83,0C-.405,1.1.624,1.825,1.31,2.432" transform="translate(103.79 26.855)" fill="#fff"/>
  <path id="Path-11" data-name="Path" d="M1.277,3.629C2.09,3.629,2.9,2.5,2.9,1.5,2.9.626,2.671,0,1.742,0A1.818,1.818,0,0,0,0,2C.116,3.128.813,3.629,1.277,3.629" transform="translate(97.984 25.403)" fill="#fff"/>
  <path id="Shape-6" data-name="Shape" d="M50.368,23.131c-2-.369-2.744-1.845-2.993-1.845-.374,0-1.247,1.476-2.744,1.353h-.374c-.624,0-2.868-.369-2.494-3.69-.374.615-2.12,3.69-4.49,3.567-1.373-.122-1.622-1.107-2.12-1.107a7.815,7.815,0,0,1-1.746.492h-.873c-1-.123-2.62-.615-2.744-2.091,0-.369.124-1.6.124-1.6s-2.12,3.2-3.991,3.075c-.125-.123-.249-.123-.5-.123-.749,0-1.372-.984-1.622-.984a9,9,0,0,1-2.12.615,3.89,3.89,0,0,1-1.122-.123,1.378,1.378,0,0,1-.624-.122h-.125A2,2,0,0,1,18.19,18.58V17.227c-.125.122-2.12,3.2-3.866,3.074a5.581,5.581,0,0,1-1.122-.122,5.12,5.12,0,0,1-1.373-.738,13.906,13.906,0,0,1-1.372.369,2.159,2.159,0,0,1-.873.122h-1c-1.247-.122-2.744-1.107-2.744-2.091a6.174,6.174,0,0,1,.125-1.107c.249-.615,1.746-5.9,1.746-5.9s0-.369-.249-.369c-.749,0-2.12,1.6-4.615,6.273-.873,1.476-.623,2.706-2.119,2.583-1.123,0-1.123.123,1.247-9.963,0-.246,1.622-5.535,2-6.888.249-.985.373-2.583,1.746-2.461h.748a1.19,1.19,0,0,1,1,1.107C6.092,5.172,5.343,7.264,3.847,11.445c0,.123,0,.123.125.123.124-.246,2.743-3.936,4.24-3.813,1.5,0,2.62.985,2.245,2.337-.749,2.829-1.122,4.182-1.871,7.011-.124.984.873,1.107,1.247,1.107a2.034,2.034,0,0,0,1.247-.492V16.611c0-4.919,4.614-7.871,6.36-7.749,1.622.123,2,.738,2.62.738.186.061.28-.154.4-.369s.28-.43.592-.369c0,0,2,.247,2,1.107,0,1.476-2.744,5.166-2.744,8,0,.491.249,1.107,1.247,1.353.873.123,1.746,0,2.619-3.567,1.247-5.289,2-6.4,2.37-6.4a1.872,1.872,0,0,0,.748.123,2.582,2.582,0,0,1,1.622,1.107,75.132,75.132,0,0,0-2.495,7.749.785.785,0,0,0,.624.984c.749,0,1-.861,1.746-1.845,2.869-4.3,2.246-7.38,3.742-7.257a2.792,2.792,0,0,0,1,.122c.749.123.873.492.873.861,0,1.107-2.37,5.658-2.37,7.872,0,.86.374,1.229,1,1.229a2.256,2.256,0,0,0,1.621-.491,5.9,5.9,0,0,1,0-1.845c.25-3.321,3.493-8,7.234-7.38a4.843,4.843,0,0,1,1.247.369c1.247-.738,1.746-7.872,4.241-7.872.5,0,1.5.246,1.5.984A15.081,15.081,0,0,1,48,6.4c-1.5,4.3-3.742,8.856-4.117,13.284-.124.738.5,1.107,1,1.353.873.247,1.871-.491,3.118-4.55,1.246-4.428.873-5.658,2.743-5.658a1.258,1.258,0,0,1,1.373.861c-.873,3.443-1.373,5.288-2.37,8.733.124.123.124.123.124.246.5,1.107,2.869.861,4.366-.369a7.415,7.415,0,0,1-.873-3.443c0-3.321,2.619-6.027,4.989-6.151,1.372-.122,2.744.738,2.494,3.568C60.6,16.858,58.6,18.7,57.478,19.932a1.584,1.584,0,0,0,1.122.861,3.122,3.122,0,0,0,2.619-1.6c.624-.984,2.495-5.043,2.495-6.026a3.784,3.784,0,0,1-.249-.861v-.738a1.78,1.78,0,0,1,1.246-1.6c.125-.122,1,.123,1,1.107v.738c0,1.107,2.619.616,2.619,2.337,0,1.23-1.5,4.059-1.5,5.289a.72.72,0,0,0,.249.615c.873.492,3.243-1.23,3.243-1.23a5.6,5.6,0,0,1-.873-3.567c.374-3.444,2.495-6.273,4.865-6.765,1.247-.369,2.619.492,2.495,2.706-.125,2.583-2.62,5.9-3.493,6.888.374.738,2,.738,2.495.616,1.372-.247,1.871,1.107-.748,1.476a6.443,6.443,0,0,1-3.742-.616,12.634,12.634,0,0,1-4.614,1.968h-.374a1.7,1.7,0,0,1-1.871-1.845c0-1.107,1.5-4.674,1.5-4.8a1.33,1.33,0,0,0-1-1.107c-.5.123-.874,2.706-2,4.92-.873,1.845-2.619,4.059-5.487,3.567a4.386,4.386,0,0,1-2.12-.738c-1.44,1.015-2.456,1.695-3.958,1.695A6,6,0,0,1,50.368,23.131Z" transform="translate(47.177 21.048)" fill="#fff"/>
  <g id="Group" transform="translate(28.306 26.855)">
    <path id="Path-12" data-name="Path" d="M1.372.74A2.953,2.953,0,0,1,0,.494a2.23,2.23,0,0,0,2.121.987c.5,0,.5-.74.624-.864V.247A1.061,1.061,0,0,1,2,0c0,.247-.125.74-.624.74" transform="translate(0 10.611)" fill="#6f0e10"/>
    <path id="Path-13" data-name="Path" d="M.374.247C.249.123.125.123.125,0A2.216,2.216,0,0,1,.249,2.591L0,2.838c.374.494.5,1.11,1,.494C1.746,2.468,1.247.987.374.247" transform="translate(77.961 0.864)" fill="#6f0e10"/>
    <path id="Path-14" data-name="Path" d="M2,0a1.55,1.55,0,0,1,.125.74,2.036,2.036,0,0,1-1.746,2.1A.461.461,0,0,1,0,2.715a1.5,1.5,0,0,0,1.123.864,2.146,2.146,0,0,0,1.746-2.1C2.744.74,2.619.123,2,0" transform="translate(70.726)" fill="#6f0e10"/>
    <path id="Path-15" data-name="Path" d="M4.491,0C4.241,0,3.368,1.357,1.746,1.357H1.372A3.819,3.819,0,0,1,0,.987,2.427,2.427,0,0,0,2.121,2.1h.374C3.992,2.221,4.865.74,5.239.74h0C4.865.37,4.615,0,4.491,0" transform="translate(61.62 16.04)" fill="#6f0e10"/>
    <path id="Path-16" data-name="Path" d="M11.351,0c-.125.37-.624.74-1.746.987A6.737,6.737,0,0,1,5.863.37,12.623,12.623,0,0,1,1.247,2.344H.873A1.817,1.817,0,0,1,0,2.1a1.673,1.673,0,0,0,1.622.987H2A12.623,12.623,0,0,0,6.611,1.11a6.428,6.428,0,0,0,3.742.617c2.245-.494,2-1.6,1-1.727" transform="translate(84.447 14.066)" fill="#6f0e10"/>
  </g>
  <path id="Path-17" data-name="Path" d="M1.99.968c.351-.121.468-.121.819-.242h.468L3.629.363A3.758,3.758,0,0,0,2.107,0c-.351.121-.468.121-.819.242C1.171.242,0,.726,0,1.694v.363a1.442,1.442,0,0,0,.7.121C.937,1.452,1.873,1.089,1.99.968" transform="translate(10.887 36.29)" fill="#6f0e10"/>
  <path id="Path-18" data-name="Path" d="M.218.29a1.694,1.694,0,0,0,.871.871A1.462,1.462,0,0,1,1.234.726C.944.581.508.581.218.29" transform="translate(15.968 28.306)" fill="#6f0e10"/>
  <path id="Path-19" data-name="Path" d="M1.452.115V0C.893.115.335,1.261,0,2.177.893,1.49,1.452.917,1.452.115" transform="translate(21.048 23.952)" fill="#6f0e10"/>
  <path id="Path-20" data-name="Path" d="M2.292,5.767a26.512,26.512,0,0,1-1.019,4.262C.127,13.289,0,13.163,0,13.414a6.26,6.26,0,0,0,.891.376,18,18,0,0,0,1.146-3.134c.255-.878.764-3.009,1.019-4.262,0,0,4.2-1.755,4.2-4.513A1.926,1.926,0,0,0,6.239,0a3.613,3.613,0,0,1,.255,1.128c0,3.009-4.2,4.639-4.2,4.639" transform="translate(18.145 23.226)" fill="#6f0e10"/>
  <path id="Path-21" data-name="Path" d="M16.8,0c-.618.93-1.482,2.126-2.471,2.392a2.735,2.735,0,0,1-1.977-.4,4.26,4.26,0,0,1-1.73.664H9.266c-1.235-.266-1.853-1.329-2.471-1.2-.124,0-1.977,2.259-3.459,2.525-.494.133-.741.133-1.235.266a3.245,3.245,0,0,1-2.1-.4,2.774,2.774,0,0,0,2.841,1.2c.494-.133.741-.133,1.235-.266,1.482-.4,3.459-2.525,3.459-2.525.618-.133,1.235.93,2.471,1.2h1.359A4.26,4.26,0,0,0,13.1,2.79a2.735,2.735,0,0,0,1.977.4A4.937,4.937,0,0,0,17.419.93,1,1,0,0,1,16.8,0" transform="translate(10.161 36.29)" fill="#6f0e10"/>
  <path id="Path-22" data-name="Path" d="M10.765.249A.926.926,0,0,0,10.153,0,4.013,4.013,0,0,1,9.3,2.117S6.483,5.107,3.425,5.73a7.936,7.936,0,0,1-1.835,0A4.2,4.2,0,0,1,0,4.982,3.515,3.515,0,0,0,2.324,6.477a7.936,7.936,0,0,0,1.835,0c3.058-.5,5.872-3.612,5.872-3.612A4.013,4.013,0,0,0,10.887.747c-.122-.125-.122-.249-.122-.5" transform="translate(35.565 39.194)" fill="#6f0e10"/>
  <path id="Path-23" data-name="Path" d="M.237,9.418H0c.237.372.474.744.948.744.711,0,2.844-1.115,4.029-3.47.237-.991.592-1.983.829-2.85v-.5A3.972,3.972,0,0,0,4.384,0,4.2,4.2,0,0,1,5.1,2.6C5.1,7.187,1.3,9.542.237,9.418" transform="translate(44.274 20.323)" fill="#6f0e10"/>
  <path id="Path-24" data-name="Path" d="M0,9.435a10.817,10.817,0,0,1,1.522-1.81c.7-2.068,1.288-3.878,2.107-6.592C3.512.517,3.395.129,2.81,0c0,.129,0,.259.117.259C1.756,4.007,1.054,6.2,0,9.435" transform="translate(51.532 22.5)" fill="#6f0e10"/>
  <path id="Path-25" data-name="Path" d="M6.532,0C5.764.367,4.355,2.2,2.177,6.121,1.281,7.591,1.665,8.815,0,8.692c0,.735.256.735.769.735,1.537.122,1.281-1.1,2.177-2.571,1.281-2.326,2.306-3.8,2.946-4.775C6.148,1.1,6.4.367,6.532,0" transform="translate(47.903 31.935)" fill="#6f0e10"/>
  <path id="Path-26" data-name="Path" d="M2.015,1.21C1.209,3.992.806,5.323,0,8.1v.484a1.6,1.6,0,0,0,.672.121H.806C1.612,6.048,2.015,4.718,2.82,1.935A1.531,1.531,0,0,0,1.88,0a1.809,1.809,0,0,1,.134,1.21" transform="translate(55.887 30.484)" fill="#6f0e10"/>
  <path id="Path-27" data-name="Path" d="M5.081.056c-.13,0-.13-.127,0,0C3-.451,0,3.358,0,5.9a5.377,5.377,0,0,0,.13.635h.13a1.006,1.006,0,0,0,.521-.127C.912,4.247,3,1.326,4.82.691A2.113,2.113,0,0,0,5.081.056h0" transform="translate(60.968 32.661)" fill="#6f0e10"/>
  <path id="Path-28" data-name="Path" d="M10.52,0h0C9.786.844,8.441,2.291,7.34,2.17a5.453,5.453,0,0,1-1.1-.121,5.006,5.006,0,0,1-1.346-.723,13.58,13.58,0,0,1-1.346.362,1.838,1.838,0,0,1-.856.121H1.713A2.949,2.949,0,0,1,0,1.206,3.521,3.521,0,0,0,2.447,2.532h.979a2.109,2.109,0,0,0,.856-.121A13.58,13.58,0,0,0,5.627,2.05a5.006,5.006,0,0,0,1.346.723,5.453,5.453,0,0,0,1.1.121c.979.121,2.08-.965,2.814-1.809A1.926,1.926,0,0,1,10.52,0" transform="translate(54.435 39.919)" fill="#6f0e10"/>
  <path id="Path-29" data-name="Path" d="M0,7.851a1.272,1.272,0,0,0,.13.613c.13.123.389.123.648.245h0c0-2.821,2.851-6.5,2.851-7.974C3.629.368,3.24.123,2.851,0h0C2.851,1.227,0,5.03,0,7.851" transform="translate(67.5 31.935)" fill="#6f0e10"/>
  <path id="Path-30" data-name="Path" d="M9.916.121V0C9.182.964,7.835,2.29,6.611,2.17c-.245,0-.367,0-.49-.121-.735-.121-1.347-.964-1.592-.964a8.845,8.845,0,0,1-2.081.6c-.367,0-.735-.121-1.1-.121a5.375,5.375,0,0,1-.612-.121H.612C.367,1.326.245,1.326,0,1.205a1.94,1.94,0,0,0,1.224.964h.122a1.349,1.349,0,0,0,.612.121,3.833,3.833,0,0,0,1.1.121,8.845,8.845,0,0,0,2.081-.6c.245,0,.857.964,1.592.964.245,0,.367,0,.49.121.979.121,2.081-.844,2.938-1.688A3.474,3.474,0,0,1,9.916.121" transform="translate(66.774 41.371)" fill="#6f0e10"/>
  <path id="Path-31" data-name="Path" d="M0,8.32v.39H.112c.335,0,.447-.13.67-.39C1.452,5.33,2.9.78,2.9.78A2.089,2.089,0,0,0,2.233,0h0C2.233.13.558,5.33,0,8.32" transform="translate(74.032 31.935)" fill="#6f0e10"/>
  <path id="Path-32" data-name="Path" d="M0,7.863a1.591,1.591,0,0,0,.116.726c.116,0,.232.121.348.121H.7V8.589C.7,6.411,2.9,1.935,2.9.847A.841.841,0,0,0,2.206,0V.121C2.206,1.21,0,5.685,0,7.863" transform="translate(79.839 32.661)" fill="#6f0e10"/>
  <path id="Path-33" data-name="Path" d="M0,5.938a1.079,1.079,0,0,0,.118.594H.235a.7.7,0,0,0,.471-.119A8.507,8.507,0,0,1,3.884,1.188C4.119.713,4.237.238,4.355,0,2.354.238,0,4.038,0,5.938" transform="translate(84.919 34.839)" fill="#6f0e10"/>
  <path id="Path-34" data-name="Path" d="M10.512,0c-.751,1.164-2.253,2.974-4,2.845C5.006,2.716,4.88,1.81,4.38,1.681A7.571,7.571,0,0,1,2.628,2.2H1.752A2.806,2.806,0,0,1,0,1.681,2.891,2.891,0,0,0,2.5,2.974h.876a7.571,7.571,0,0,0,1.752-.517c.5,0,.751,1.035,2.127,1.164,1.5.129,2.878-1.293,3.629-2.328C10.762.905,10.637.517,10.512,0" transform="translate(78.387 41.371)" fill="#6f0e10"/>
  <path id="Path-35" data-name="Path" d="M4.165,2.6C2.651,6.925.379,11.5,0,15.952a.911.911,0,0,0,.126.618.47.47,0,0,0,.379.124H.757V16.57c.379-4.452,2.651-9.027,4.165-13.355A15.08,15.08,0,0,0,5.806.866.932.932,0,0,0,5.049,0V.124A11.531,11.531,0,0,1,4.165,2.6" transform="translate(91.452 25.403)" fill="#6f0e10"/>
  <path id="Path-36" data-name="Path" d="M2.9.765Q2.729,0,2.206,0h0C1.277,3.57.813,5.483,0,9.053c0,.128,0,.128.116.255h0a1.356,1.356,0,0,0,.7.128C1.51,6.12,1.974,4.208,2.9.765" transform="translate(97.258 33.387)" fill="#6f0e10"/>
  <path id="Path-37" data-name="Path" d="M.6,4.412A5.172,5.172,0,0,1,2.177.936V0H1.953C1.167,0-.518,2.674.156,5.081A2.329,2.329,0,0,1,.6,4.412" transform="translate(103.79 34.839)" fill="#6f0e10"/>
  <path id="Path-38" data-name="Path" d="M3.443,2.737C3.188,5.35,1.148,7.217,0,8.461a.123.123,0,0,0,.128.124.781.781,0,0,0,.51.124,1.416,1.416,0,0,0,.638-.124C2.423,7.341,4.08,5.6,4.335,3.359,4.463,1.493,3.953.5,3.188,0a7.932,7.932,0,0,1,.255,2.737" transform="translate(104.516 33.387)" fill="#6f0e10"/>
  <path id="Path-39" data-name="Path" d="M17.419.491a.441.441,0,0,0-.127-.368A.478.478,0,0,0,16.911,0c-.509,0-.89,2.7-2.034,4.91-.89,1.841-2.67,3.928-5.595,3.56A6.408,6.408,0,0,1,7.12,7.734C5.213,8.961,4.2,9.575,2.034,9.33A4.378,4.378,0,0,1,0,8.47a4.06,4.06,0,0,0,2.8,1.6c2.162.368,3.306-.368,5.086-1.6a6.408,6.408,0,0,0,2.162.737c2.924.491,4.7-1.719,5.595-3.56l.381-.737a41.326,41.326,0,0,1,1.4-4.419" transform="translate(95.806 35.565)" fill="#6f0e10"/>
  <path id="Path-40" data-name="Path" d="M0,5.29v.516H.121c.242,0,.484-.258.847-.645A9.305,9.305,0,0,1,3.145,1.29,4.537,4.537,0,0,0,3.629,0C1.815,0,.242,3.484,0,5.29" transform="translate(24.677 30.484)" fill="#6f0e10"/>
  <path id="Path-41" data-name="Path" d="M2.146,0C2.02,1.19,0,4.283,0,6.425v.238c.126,0,.252.119.379.119v.357h0c.126,0,.126.119.252.119V7.139C.631,5,2.9,1.785,2.9.595,2.9.357,2.4.119,2.146,0" transform="translate(29.758 29.758)" fill="#6f0e10"/>
  <path id="Path-42" data-name="Path" d="M2.069,1.016A1.588,1.588,0,0,0,2.177.381V0H1.852C1.092.254-.428,3.048.115,5.081c.217-.254.326-.508.543-.762a7.19,7.19,0,0,1,1.411-3.3" transform="translate(119.758 32.661)" fill="#6f0e10"/>
  <path id="Path-43" data-name="Path" d="M9.91.124C9.785.124,9.659,0,9.534,0c-1,0-3.513,1.487-7.151,8.426C2.007,9.294.125,14,0,16.729V18.34A2.959,2.959,0,0,0,.5,20.2c.125.124.251.124.5.124a4.356,4.356,0,0,1-.251-1.239V17.472a28,28,0,0,1,2.384-8.3C6.523,2.726,9.032.991,10.161.744h0A.8.8,0,0,0,9.91.124" transform="translate(37.016 21.774)" fill="#6f0e10"/>
  <path id="Path-44" data-name="Path" d="M3.153,0a3.937,3.937,0,0,1,.394,2.651C3.284,5.3,1.182,7.195,0,8.457a.125.125,0,0,0,.131.126,2.657,2.657,0,0,0,1.051.126h0c1.182-1.262,2.89-3.029,3.153-5.3C4.466,1.515,3.941.5,3.153,0" transform="translate(121.21 31.21)" fill="#6f0e10"/>
  <path id="Path-45" data-name="Path" d="M.4.249C.266.125.133.125.133,0A2.149,2.149,0,0,1,.266,2.619L0,2.869c.4.5.531,1.122,1.063.5C1.86,2.494,1.328,1,.4.249" transform="translate(106.694 27.581)" fill="#6f0e10"/>
  <path id="Path-46" data-name="Path" d="M.817,5.444c.272-.968.953-2.3,1.225-3.266a3.61,3.61,0,0,1,0-1.21A.414.414,0,0,1,2.177.6C2.041.363,1.769.242,1.5,0c0,.121.136.242.136.484C1.633,1.694,0,4.476,0,5.685v.121a4.773,4.773,0,0,1,.817-.363" transform="translate(114.677 35.565)" fill="#6f0e10"/>
  <path id="Path-47" data-name="Path" d="M1.161,1A1.1,1.1,0,0,0,.29,0V1.228c.29.112.581.112.871.223Z" transform="translate(113.226 32.661)" fill="#6f0e10"/>
</svg>
